<?xml version="1.0" encoding="UTF-8" standalone="no"?><!DOCTYPE svg PUBLIC "-//W3C//DTD SVG 1.1//EN" "http://www.w3.org/Graphics/SVG/1.1/DTD/svg11.dtd"><svg width="100%" height="100%" viewBox="0 0 100 100" version="1.1" xmlns="http://www.w3.org/2000/svg" xmlns:xlink="http://www.w3.org/1999/xlink" xml:space="preserve" xmlns:serif="http://www.serif.com/" style="fill-rule:evenodd;clip-rule:evenodd;stroke-linejoin:round;stroke-miterlimit:1.41421;"><rect x="0" y="0" width="100" height="100" style="fill:none;"/><path d="M33.75,55.583l11.792,-11.791l-29.25,-29.209c-6.5,6.5 -6.5,17.042 0,23.584l17.458,17.416Zm28.25,-7.541c6.375,2.958 15.333,0.875 21.958,-5.75c7.959,-7.959 9.5,-19.375 3.375,-25.5c-6.083,-6.084 -17.5,-4.584 -25.5,3.375c-6.625,6.625 -8.708,15.583 -5.75,21.958l-40.666,40.667l5.875,5.875l28.708,-28.625l28.667,28.666l5.875,-5.875l-28.667,-28.666l6.125,-6.125Z" style="fill:#e91e63;fill-rule:nonzero;"/></svg>